<?xml version="1.0" standalone="no"?><!DOCTYPE svg PUBLIC "-//W3C//DTD SVG 1.1//EN" "http://www.w3.org/Graphics/SVG/1.1/DTD/svg11.dtd" ><svg xmlns="http://www.w3.org/2000/svg"><metadata></metadata><defs><font id="Founder: FZLanTingHei-L-GBK: Regular" horiz-adv-x="256"><font-face font-family="FZLanTingHei-L-GBK" font-weight="400" font-stretch="normal" units-per-em="256" panose-1="2 0 0 0 0 0 0 0 0 0" ascent="229" descent="-64" x-height="0" bbox="0 -34 253 218" underline-thickness="12" underline-position="-52" unicode-range="U+002f-ff1a" /><missing-glyph horiz-adv-x="256" d="M42 47 l-12 0 l-5 142 l23 0 l-6 -142 ZM26 -6 l0 21 l20 0 l0 -21 l-20 0 Z" /><glyph glyph-name="" unicode="/" d="M57 192 l13 0 l-56 -201 l-14 0 l57 201 Z" /><glyph glyph-name="" unicode="1" d="M84 156 q-26 -24 -53 -34 l0 17 q46 21 58 53 l11 0 l0 -198 l-16 0 l0 162 Z" /><glyph glyph-name="" unicode="2" d="M9 -4 l0 12 q19 36 62 68 q46 34 45 62 q-1 39 -43 40 q-33 -3 -44 -38 l-15 7 q15 46 62 45 q54 -2 58 -51 q3 -38 -49 -73 q-41 -30 -56 -57 l106 0 l0 -15 l-126 0 Z" /><glyph glyph-name="" unicode="3" d="M138 46 q-3 -53 -64 -55 q-54 0 -65 48 l18 5 q6 -40 45 -40 q48 0 48 44 q-4 38 -49 41 q-14 0 -15 0 l0 13 q1 0 7 0 q45 1 48 40 q-3 34 -37 36 q-36 -1 -43 -38 l-17 6 q11 45 59 46 q55 -2 57 -50 q-1 -31 -40 -45 q46 -14 48 -51 Z" /><glyph glyph-name="" unicode="&#x2460;" d="M128 218 q114 -11 125 -125 q-11 -111 -125 -122 q-114 11 -125 122 q11 114 125 125 ZM139 178 l0 -170 l-22 0 l0 121 l-39 0 l0 17 q40 -1 45 32 l16 0 ZM128 212 q-109 -10 -119 -119 q10 -106 119 -116 q109 10 119 116 q-10 109 -119 119 Z" /><glyph glyph-name="" unicode="&#x2461;" d="M128 218 q114 -11 125 -125 q-11 -111 -125 -122 q-114 11 -125 122 q11 114 125 125 ZM95 118 l-22 0 q1 59 60 60 q51 -3 54 -50 q2 -35 -46 -57 l-18 -10 q-27 -15 -30 -33 l94 0 l0 -20 l-118 0 q1 47 40 68 l23 13 q34 15 32 40 q-3 29 -34 30 q-34 0 -35 -41 ZM128 212 q-109 -10 -119 -119 q10 -106 119 -116 q109 10 119 116 q-10 109 -119 119 Z" /><glyph glyph-name="" unicode="&#x2462;" d="M128 218 q114 -11 125 -125 q-11 -111 -125 -122 q-114 11 -125 122 q11 114 125 125 ZM115 89 l0 19 q6 -1 11 -1 q32 1 33 28 q-2 26 -32 27 q-32 0 -34 -37 l-21 0 q2 55 56 56 q50 -2 53 -45 q0 -26 -22 -35 q29 -10 29 -40 q-3 -53 -62 -55 q-20 0 -32 8 q-23 11 -26 49 l22 0 q1 -37 37 -37 q36 2 38 32 q0 31 -40 31 q-6 0 -10 0 ZM128 212 q-109 -10 -119 -119 q10 -106 119 -116 q109 10 119 116 q-10 109 -119 119 Z" /><glyph glyph-name="" unicode="&#x2463;" d="M128 218 q114 -11 125 -125 q-11 -111 -125 -122 q-114 11 -125 122 q11 114 125 125 ZM189 50 l-25 0 l0 -42 l-22 0 l0 42 l-75 0 l0 21 l79 107 l18 0 l0 -110 l25 0 l0 -18 ZM142 145 l-55 -77 l55 0 l0 77 ZM128 212 q-109 -10 -119 -119 q10 -106 119 -116 q109 10 119 116 q-10 109 -119 119 Z" /><glyph glyph-name="" unicode="&#x4e00;" d="M10 108 l236 0 l0 -17 l-236 0 l0 17 Z" /><glyph glyph-name="" unicode="&#x4e09;" d="M28 184 l199 0 l0 -15 l-199 0 l0 15 ZM39 101 l177 0 l0 -15 l-177 0 l0 15 ZM13 10 l230 0 l0 -16 l-230 0 l0 16 Z" /><glyph glyph-name="" unicode="&#x4e8c;" d="M35 178 l190 0 l0 -14 l-190 0 l0 14 ZM14 18 l228 0 l0 -14 l-228 0 l0 14 Z" /><glyph glyph-name="" unicode="&#x4eea;" d="M46 130 l13 0 l0 -153 l-13 0 l0 153 ZM67 206 l14 -4 q-28 -78 -65 -125 q-3 8 -7 15 q38 50 58 114 ZM111 181 q11 -135 134 -187 q-6 -7 -12 -15 q-123 59 -137 199 l15 3 ZM213 184 l16 -3 q-17 -148 -146 -205 q-4 6 -11 13 q126 52 141 195 ZM156 207 q10 -30 18 -51 l-15 -4 q-2 7 -16 51 l13 4 Z" /><glyph glyph-name="" unicode="&#x4ef6;" d="M44 130 l12 0 l0 -153 l-12 0 l0 153 ZM64 207 l13 -5 q-27 -78 -62 -124 q-3 7 -7 14 q36 50 56 115 ZM111 152 l128 0 l0 -13 l-128 0 l0 13 ZM82 73 l165 0 l0 -13 l-165 0 l0 13 ZM166 208 l14 0 l0 -231 l-14 0 l0 231 ZM123 190 l13 -4 q-22 -57 -47 -91 q-5 5 -10 11 q27 36 44 84 Z" /><glyph glyph-name="" unicode="&#x4f18;" d="M44 131 l13 0 l0 -154 l-13 0 l0 154 ZM64 208 l13 -5 q-27 -78 -62 -125 q-3 8 -7 15 q36 50 56 115 ZM75 146 l165 0 l0 -13 l-165 0 l0 13 ZM125 209 l14 0 q0 -118 -10 -153 q-11 -45 -49 -79 q-5 6 -12 12 q36 29 47 71 q10 34 10 149 ZM161 143 l14 0 l0 -135 q0 -13 16 -13 l19 0 q14 0 16 12 q3 10 5 28 q7 -2 14 -4 q-2 -14 -5 -26 q-5 -22 -31 -22 l-20 0 q-29 0 -28 25 l0 135 ZM184 202 q18 -15 33 -28 l-12 -9 q-14 14 -31 28 l10 9 Z" /><glyph glyph-name="" unicode="&#x4f1a;" d="M63 122 l130 0 l0 -13 l-130 0 l0 13 ZM19 71 l218 0 l0 -13 l-218 0 l0 13 ZM141 208 l-5 -6 q47 -53 109 -81 q-5 -7 -9 -15 q-62 32 -109 85 q-42 -53 -108 -87 q-3 6 -9 14 q71 36 112 90 l19 0 ZM112 59 l13 -9 q-29 -26 -57 -48 q68 2 124 4 l11 -13 q-68 -1 -134 -5 q-12 -1 -23 -3 l-7 16 q10 4 19 10 q29 23 54 48 ZM169 36 q28 -25 53 -50 l-12 -10 q-26 27 -53 51 l12 9 Z" /><glyph glyph-name="" unicode="&#x5143;" d="M155 115 l14 0 l0 -36 l-14 0 l0 36 ZM155 86 l14 0 l0 -64 q0 -20 14 -20 l28 0 q14 0 18 17 q2 15 3 35 q7 -4 16 -8 q-3 -18 -6 -33 q-6 -28 -29 -28 l-30 0 q-28 0 -28 36 l0 65 ZM83 115 l14 0 q0 -33 -4 -55 q-12 -56 -72 -86 q-4 9 -9 17 q53 23 66 69 q5 18 5 55 ZM36 193 l185 0 l0 -14 l-185 0 l0 14 ZM14 122 l229 0 l0 -14 l-229 0 l0 14 Z" /><glyph glyph-name="" unicode="&#x51fa;" d="M28 71 l15 0 l0 -81 l-15 0 l0 81 ZM39 4 l183 0 l0 -14 l-183 0 l0 14 ZM212 71 l15 0 l0 -91 l-15 0 l0 91 ZM120 206 l15 0 l0 -208 l-15 0 l0 208 ZM35 179 l15 0 l0 -77 l-15 0 l0 77 ZM42 116 l169 0 l0 -14 l-169 0 l0 14 ZM203 179 l15 0 l0 -77 l-15 0 l0 77 Z" /><glyph glyph-name="" unicode="&#x5341;" d="M12 118 l232 0 l0 -15 l-232 0 l0 15 ZM119 208 l17 0 l0 -232 l-17 0 l0 232 Z" /><glyph glyph-name="" unicode="&#x5343;" d="M15 103 l225 0 l0 -14 l-225 0 l0 14 ZM120 180 l16 0 l0 -202 l-16 0 l0 202 ZM224 195 l2 -15 q-100 -7 -194 -10 q-2 8 -3 16 q95 2 195 9 Z" /><glyph glyph-name="" unicode="&#x5361;" d="M110 90 l16 0 l0 -114 l-16 0 l0 114 ZM125 61 q50 -25 85 -44 l-7 -15 q-39 24 -84 47 l6 12 ZM112 175 l111 0 l0 -14 l-111 0 l0 14 ZM14 117 l229 0 l0 -15 l-229 0 l0 15 ZM110 209 l16 0 l0 -97 l-16 0 l0 97 Z" /><glyph glyph-name="" unicode="&#x540e;" d="M44 137 l201 0 l0 -14 l-201 0 l0 14 ZM79 80 l15 0 l0 -104 l-15 0 l0 104 ZM87 80 l126 0 l0 -13 l-126 0 l0 13 ZM207 80 l15 0 l0 -104 l-15 0 l0 104 ZM87 5 l126 0 l0 -13 l-126 0 l0 13 ZM225 202 l5 -15 q-84 -7 -197 -8 l0 14 q110 0 192 9 ZM33 186 l14 0 l0 -82 q0 -85 -28 -127 q-5 8 -11 13 q25 32 25 113 l0 83 Z" /><glyph glyph-name="" unicode="&#x5458;" d="M35 106 l15 0 l0 -84 l-15 0 l0 84 ZM44 106 l171 0 l0 -14 l-171 0 l0 14 ZM206 106 l15 0 l0 -82 l-15 0 l0 82 ZM123 81 l16 0 q0 -12 -1 -26 q-2 -28 -19 -46 q-27 -23 -96 -35 q-3 6 -8 14 q67 10 91 30 q16 14 16 38 q1 13 1 25 ZM131 30 q64 -23 109 -41 l-9 -14 q-50 22 -108 43 l8 12 ZM48 198 l13 0 l0 -70 l-13 0 l0 70 ZM54 198 l147 0 l0 -13 l-147 0 l0 13 ZM194 198 l14 0 l0 -70 l-14 0 l0 70 ZM55 141 l147 0 l0 -12 l-147 0 l0 12 Z" /><glyph glyph-name="" unicode="&#x56db;" d="M150 188 l16 0 l0 -106 q0 -12 11 -12 q14 0 31 1 q-2 -8 -4 -15 q-16 0 -32 0 q-22 0 -22 24 l0 108 ZM95 183 l16 0 l0 -47 q0 -56 -40 -93 q-1 2 -11 14 q17 14 26 35 q9 20 9 49 l0 42 ZM28 191 l14 0 l0 -213 l-14 0 l0 213 ZM35 191 l190 0 l0 -12 l-190 0 l0 12 ZM218 191 l14 0 l0 -213 l-14 0 l0 213 ZM36 0 l189 0 l0 -12 l-189 0 l0 12 Z" /><glyph glyph-name="" unicode="&#x5728;" d="M89 97 l142 0 l0 -13 l-142 0 l0 13 ZM76 8 l169 0 l0 -13 l-169 0 l0 13 ZM151 146 l16 0 l0 -146 l-16 0 l0 146 ZM13 182 l232 0 l0 -13 l-232 0 l0 13 ZM48 112 l15 0 l0 -134 l-15 0 l0 134 ZM90 210 l15 -4 q-32 -98 -88 -152 q-2 5 -7 13 q53 54 80 143 Z" /><glyph glyph-name="" unicode="&#x5947;" d="M28 184 l202 0 l0 -13 l-202 0 l0 13 ZM125 208 l15 0 q-1 -41 -24 -58 q-25 -18 -84 -30 q-4 7 -8 13 q60 13 83 28 q17 12 18 47 ZM124 166 q53 -16 100 -32 l-5 -14 q-43 17 -99 33 l4 13 ZM43 72 l14 0 l0 -61 l-14 0 l0 61 ZM50 72 l87 0 l0 -12 l-87 0 l0 12 ZM130 72 l13 0 l0 -61 l-13 0 l0 61 ZM49 23 l88 0 l0 -12 l-88 0 l0 12 ZM14 112 l230 0 l0 -13 l-230 0 l0 13 ZM195 107 l14 0 l0 -100 q0 -28 -24 -28 q-14 0 -31 0 q-2 9 -3 17 q19 -2 30 -2 q14 0 14 16 l0 97 Z" /><glyph glyph-name="" unicode="&#x5956;" d="M15 50 l229 0 l0 -11 l-229 0 l0 11 ZM120 73 l16 0 q-2 -30 -9 -44 q-19 -41 -107 -55 q-3 6 -8 13 q83 12 101 47 q7 14 7 39 ZM131 52 q22 -53 113 -63 q-6 -8 -9 -14 q-77 10 -111 60 l7 17 ZM73 208 l14 0 l0 -133 l-14 0 l0 133 ZM140 185 l93 0 l0 -13 l-93 0 l0 13 ZM221 183 l12 0 l0 -13 q-35 -68 -120 -89 q-4 6 -8 13 q83 19 116 81 l0 8 ZM29 195 q13 -14 31 -34 l-11 -9 q-17 20 -29 35 l9 8 ZM76 133 q1 -10 2 -13 q-26 -8 -62 -21 l-6 14 q30 9 66 20 ZM145 210 l14 -4 q-23 -46 -49 -74 q-5 5 -11 9 q29 29 46 69 ZM148 154 q14 -13 33 -32 l-11 -8 q-18 18 -32 32 l10 8 Z" /><glyph glyph-name="" unicode="&#x5957;" d="M61 139 l15 0 l0 -99 l-15 0 l0 99 ZM71 139 l135 0 l0 -11 l-135 0 l0 11 ZM71 107 l130 0 l0 -11 l-130 0 l0 11 ZM72 76 l131 0 l0 -11 l-131 0 l0 11 ZM15 44 l226 0 l0 -13 l-226 0 l0 13 ZM95 40 l13 -7 q-18 -16 -40 -33 q92 3 126 3 l15 -12 q-113 -3 -145 -5 q-9 0 -20 -3 l-6 16 q12 3 19 8 q17 13 38 33 ZM18 183 l220 0 l0 -13 l-220 0 l0 13 ZM116 213 l14 -4 q-8 -18 -17 -33 q-26 -39 -96 -68 q-4 5 -10 13 q67 24 91 57 q11 15 18 35 ZM160 178 q35 -40 87 -51 q-5 -7 -9 -14 q-58 18 -89 60 l11 5 ZM175 28 q26 -23 48 -44 l-11 -9 q-23 24 -47 46 l10 7 Z" /><glyph glyph-name="" unicode="&#x5c06;" d="M83 78 l163 0 l0 -12 l-163 0 l0 12 ZM122 181 l108 0 l0 -12 l-108 0 l0 12 ZM222 181 l12 0 l0 -13 q-36 -49 -143 -77 q-2 5 -6 12 q91 21 137 69 l0 9 ZM150 209 l9 -8 q-28 -30 -72 -58 q-3 5 -8 10 q40 23 71 56 ZM131 153 q18 -12 35 -26 l-10 -9 q-17 15 -34 27 l9 8 ZM197 108 l14 0 l0 -101 q0 -27 -24 -27 q-13 0 -30 0 q-1 8 -3 16 q17 -2 30 -2 q13 0 13 14 l0 100 ZM120 56 q13 -14 31 -33 l-11 -9 q-16 19 -29 34 l9 8 ZM53 208 l13 0 l0 -233 l-13 0 l0 233 ZM20 167 q13 -25 23 -49 l-12 -7 q-10 24 -22 51 l11 5 ZM58 89 q3 -9 5 -14 q-27 -28 -49 -50 l-8 13 q26 25 52 51 Z" /><glyph glyph-name="" unicode="&#x5c4f;" d="M65 101 l166 0 l0 -12 l-166 0 l0 12 ZM40 51 l205 0 l0 -12 l-205 0 l0 12 ZM177 97 l13 0 l0 -121 l-13 0 l0 121 ZM108 135 q8 -9 18 -23 l-11 -8 q-9 14 -17 24 l10 7 ZM105 96 l13 0 l0 -41 q0 -49 -34 -81 q-1 2 -10 12 q15 12 23 31 q8 17 8 42 l0 37 ZM186 135 l11 -7 q-12 -19 -29 -38 l-10 7 q16 20 28 38 ZM43 195 l183 0 l0 -12 l-183 0 l0 12 ZM219 195 l13 0 l0 -59 l-13 0 l0 59 ZM42 148 l184 0 l0 -12 l-184 0 l0 12 ZM37 195 l14 0 l0 -99 q0 -76 -29 -117 q-5 6 -11 12 q26 36 26 104 l0 100 Z" /><glyph glyph-name="" unicode="&#x5e55;" d="M13 193 l230 0 l0 -8 l-230 0 l0 8 ZM77 210 l14 0 l0 -40 l-14 0 l0 40 ZM164 210 l15 0 l0 -38 l-15 0 l0 38 ZM44 162 l13 0 l0 -66 l-13 0 l0 66 ZM51 162 l156 0 l0 -10 l-156 0 l0 10 ZM199 162 l13 0 l0 -66 l-13 0 l0 66 ZM51 107 l156 0 l0 -11 l-156 0 l0 11 ZM50 135 l156 0 l0 -11 l-156 0 l0 11 ZM16 77 l224 0 l0 -11 l-224 0 l0 11 ZM121 69 l13 0 l0 -94 l-13 0 l0 94 ZM55 41 l12 0 l0 -50 l-12 0 l0 50 ZM57 41 l145 0 l0 -11 l-145 0 l0 11 ZM190 33 l12 0 l0 -19 q0 -22 -21 -22 q-7 0 -24 1 q0 6 -1 13 q11 -2 23 -2 q11 0 11 12 l0 17 ZM103 107 l13 -5 q-31 -51 -97 -83 q-4 5 -10 11 q67 28 94 77 ZM164 74 l15 0 q26 -28 67 -41 q-4 -6 -8 -13 q-45 18 -74 54 Z" /><glyph glyph-name="" unicode="&#x5f55;" d="M43 155 l157 0 l0 -13 l-157 0 l0 13 ZM13 113 l232 0 l0 -13 l-232 0 l0 13 ZM38 196 l164 0 l0 -13 l-164 0 l0 13 ZM194 196 l15 0 l-2 -90 l-15 0 l2 90 ZM121 111 l15 0 l0 -103 q0 -27 -25 -27 q-13 0 -30 0 q-1 7 -4 16 q18 -2 31 -2 q13 0 13 14 l0 102 ZM37 87 q28 -14 49 -27 l-8 -13 q-22 15 -49 30 l8 10 ZM111 47 q0 -9 1 -15 q-48 -14 -98 -32 l-5 15 q53 15 102 32 ZM217 85 l9 -13 q-30 -16 -65 -33 l-8 10 q34 17 64 36 ZM134 106 q20 -74 111 -96 q-5 -7 -12 -15 q-92 27 -111 109 l12 2 Z" /><glyph glyph-name="" unicode="&#x6233;" d="M243 157 l1 -12 l-87 -16 l-1 13 l87 15 ZM208 202 q14 -12 29 -25 l-9 -10 q-14 15 -28 28 l8 7 ZM178 209 l13 0 q0 -48 1 -84 q4 -95 21 -122 q6 -8 11 -8 q5 0 6 10 q2 12 4 29 q6 -3 12 -5 q-1 -16 -4 -31 q-4 -19 -17 -19 q-14 0 -25 21 q-17 33 -21 127 q-1 40 -1 82 ZM226 111 l13 -4 q-24 -78 -79 -123 q-6 5 -11 9 q57 44 77 118 ZM14 198 l56 0 l0 -12 l-56 0 l0 12 ZM62 198 l12 0 l0 -78 l-12 0 l0 78 ZM84 198 l54 0 l0 -12 l-54 0 l0 12 ZM130 198 l13 0 l0 -83 l-13 0 l0 83 ZM36 98 l112 0 l0 -11 l-112 0 l0 11 ZM36 65 l108 0 l0 -11 l-108 0 l0 11 ZM36 31 l108 0 l0 -11 l-108 0 l0 11 ZM32 -2 l118 0 l0 -12 l-118 0 l0 12 ZM87 92 l12 0 l0 -98 l-12 0 l0 98 ZM28 89 l12 0 l0 -113 l-12 0 l0 113 ZM30 179 q10 -9 19 -18 l-7 -7 q-9 9 -19 18 l7 7 ZM57 146 q0 -7 -1 -12 q-18 -3 -41 -9 l-2 12 q23 4 44 9 ZM95 180 q11 -9 20 -18 l-8 -7 q-9 9 -18 18 l6 7 ZM124 150 q-1 -7 -1 -12 q-18 -3 -41 -10 l-2 12 q22 5 44 10 ZM44 120 l10 -5 q-18 -35 -41 -64 q-4 6 -8 11 q24 26 39 58 ZM89 118 q9 -13 14 -22 l-9 -7 q-3 5 -13 23 l8 6 Z" /><glyph glyph-name="" unicode="&#x6293;" d="M11 163 l72 0 l0 -13 l-72 0 l0 13 ZM42 209 l15 0 l0 -207 q0 -17 -18 -21 q-6 -1 -26 -1 q-1 7 -3 15 q14 -1 22 -1 q10 0 10 11 l0 204 ZM82 106 q0 -7 1 -14 q-37 -11 -71 -23 l-2 14 q36 11 72 23 ZM145 187 l14 0 l0 -206 l-14 0 l0 206 ZM225 200 l4 -14 q-58 -7 -132 -11 l0 13 q65 3 128 12 ZM97 182 l14 0 l0 -82 q0 -80 -30 -123 q-5 7 -9 14 q25 36 25 110 l0 81 ZM207 188 q0 -89 7 -128 q8 -43 31 -67 q-6 -5 -12 -12 q-24 28 -32 72 q-8 42 -8 133 l14 2 Z" /><glyph glyph-name="" unicode="&#x6355;" d="M10 162 l71 0 l0 -12 l-71 0 l0 12 ZM41 209 l15 0 l0 -209 q0 -17 -18 -21 q-6 -1 -26 -1 q-1 7 -3 15 q14 -1 22 -1 q10 0 10 10 l0 207 ZM81 105 q0 -7 0 -14 q-36 -12 -70 -24 l-2 15 q36 10 72 23 ZM105 87 l126 0 l0 -13 l-126 0 l0 13 ZM105 42 l126 0 l0 -12 l-126 0 l0 12 ZM89 173 l157 0 l0 -13 l-157 0 l0 13 ZM161 209 l13 0 l0 -228 l-13 0 l0 228 ZM98 131 l13 0 l0 -155 l-13 0 l0 155 ZM105 131 l124 0 l0 -13 l-124 0 l0 13 ZM224 131 l13 0 l0 -130 q0 -24 -24 -24 q-6 0 -19 -1 q-1 6 -3 14 q8 -1 21 -1 q12 0 12 12 l0 130 ZM205 211 q14 -12 26 -22 l-10 -10 q-12 12 -25 24 l9 8 Z" /><glyph glyph-name="" unicode="&#x6cb9;" d="M83 161 l16 0 l0 -183 l-16 0 l0 183 ZM92 161 l131 0 l0 -12 l-131 0 l0 12 ZM213 161 l16 0 l0 -184 l-16 0 l0 184 ZM89 5 l135 0 l0 -12 l-135 0 l0 12 ZM89 84 l134 0 l0 -12 l-134 0 l0 12 ZM148 208 l16 0 l0 -210 l-16 0 l0 210 ZM29 205 q21 -18 38 -32 l-11 -12 q-18 17 -37 33 l10 11 ZM20 141 q18 -13 40 -30 l-11 -12 q-19 17 -38 31 l9 11 ZM15 -15 q14 37 27 88 q9 -5 16 -7 q-17 -53 -26 -88 l-17 7 Z" /><glyph glyph-name="" unicode="&#x7231;" d="M20 146 l14 0 l0 -33 l-14 0 l0 33 ZM28 146 l200 0 l0 -12 l-200 0 l0 12 ZM221 146 l14 0 l0 -33 l-14 0 l0 33 ZM231 204 l3 -14 q-104 -4 -207 -6 q-1 6 -3 13 q123 2 207 7 ZM59 180 q10 -14 16 -23 l-11 -7 q-3 5 -16 23 l11 7 ZM124 182 q11 -14 16 -23 l-11 -8 q-3 6 -16 24 l11 7 ZM198 183 l13 -7 q-11 -19 -23 -36 l-14 0 q13 21 24 43 ZM15 100 l227 0 l0 -12 l-227 0 l0 12 ZM101 131 l15 -4 q-29 -72 -98 -128 q-4 6 -10 12 q68 53 93 120 ZM64 65 l145 0 l0 -12 l-145 0 l0 12 ZM195 65 l16 0 l0 -13 q-43 -56 -168 -76 q-4 7 -10 12 q119 16 162 68 l0 9 ZM87 61 q41 -59 159 -66 q-7 -8 -11 -15 q-117 12 -161 74 l13 7 Z" /><glyph glyph-name="" unicode="&#x7279;" d="M29 154 l67 0 l0 -12 l-67 0 l0 12 ZM57 208 l14 0 l0 -233 l-14 0 l0 233 ZM29 186 l13 -5 q-9 -44 -24 -79 q-6 5 -11 9 q16 35 22 75 ZM97 91 q0 -7 1 -15 q-43 -13 -83 -26 l-2 16 q42 12 84 25 ZM105 175 l130 0 l0 -12 l-130 0 l0 12 ZM95 123 l151 0 l0 -12 l-151 0 l0 12 ZM96 74 l151 0 l0 -12 l-151 0 l0 12 ZM163 209 l16 0 l0 -94 l-16 0 l0 94 ZM193 99 l16 0 l0 -91 q0 -31 -36 -31 q-13 0 -28 1 q-1 7 -4 16 q15 -2 32 -2 q20 0 20 17 l0 90 ZM126 50 q14 -13 28 -28 l-13 -7 q-13 15 -27 28 l12 7 Z" /><glyph glyph-name="" unicode="&#x731b;" d="M75 201 l12 -5 q-35 -47 -69 -79 q-2 4 -9 10 q37 31 66 74 ZM55 111 l9 0 q-14 -37 -45 -65 q-3 5 -9 10 q29 24 45 55 ZM22 202 q28 -29 38 -65 q11 -36 11 -98 q0 -58 -34 -58 q-11 0 -21 0 q-1 8 -3 14 q14 -1 25 -1 q20 0 20 45 q0 40 -5 73 q-9 48 -40 83 l9 7 ZM93 72 l14 0 l0 -79 l-14 0 l0 79 ZM99 72 l131 0 l0 -12 l-131 0 l0 12 ZM221 72 l14 0 l0 -79 l-14 0 l0 79 ZM78 -3 l169 0 l0 -12 l-169 0 l0 12 ZM86 146 l159 0 l0 -13 l-159 0 l0 13 ZM136 66 l13 0 l0 -76 l-13 0 l0 76 ZM178 67 l14 0 l0 -77 l-14 0 l0 77 ZM163 164 l39 21 l-96 0 l0 12 l119 0 l0 -14 l-47 -26 l0 -43 q0 -25 -29 -25 q-14 0 -36 0 q0 5 -3 15 q23 -2 39 -2 q14 0 14 14 l0 48 Z" /><glyph glyph-name="" unicode="&#x73b0;" d="M13 189 l82 0 l0 -13 l-82 0 l0 13 ZM14 117 l78 0 l0 -13 l-78 0 l0 13 ZM47 184 l14 0 l0 -159 l-14 0 l0 159 ZM95 43 q0 -7 1 -14 q-44 -12 -84 -25 l-2 15 q42 11 85 24 ZM111 198 l14 0 l0 -145 l-14 0 l0 145 ZM119 198 l97 0 l0 -14 l-97 0 l0 14 ZM208 198 l14 0 l0 -141 l-14 0 l0 141 ZM159 162 l14 0 q0 -47 -3 -69 q-11 -75 -81 -117 q-4 6 -10 12 q67 38 78 106 q2 14 2 68 ZM167 64 l13 0 l0 -53 q0 -14 13 -14 l18 0 q13 0 15 12 q3 13 4 28 q8 -3 14 -5 q-2 -14 -5 -27 q-4 -21 -26 -21 l-22 0 q-24 0 -24 26 l0 54 Z" /><glyph glyph-name="" unicode="&#x751f;" d="M49 158 l183 0 l0 -13 l-183 0 l0 13 ZM37 84 l189 0 l0 -13 l-189 0 l0 13 ZM11 4 l234 0 l0 -13 l-234 0 l0 13 ZM123 210 l16 0 l0 -213 l-16 0 l0 213 ZM61 196 l15 -5 q-24 -59 -52 -95 q-6 5 -12 11 q31 38 49 89 Z" /><glyph glyph-name="" unicode="&#x7528;" d="M44 132 l179 0 l0 -13 l-179 0 l0 13 ZM46 69 l179 0 l0 -13 l-179 0 l0 13 ZM127 187 l15 0 l0 -207 l-15 0 l0 207 ZM47 195 l176 0 l0 -14 l-176 0 l0 14 ZM217 195 l15 0 l0 -190 q0 -26 -24 -26 q-16 0 -37 0 q-1 7 -3 16 q21 -1 33 -1 q16 0 16 13 l0 188 ZM38 195 l15 0 l0 -98 q0 -84 -30 -122 q-5 7 -11 14 q26 34 26 106 l0 100 Z" /><glyph glyph-name="" unicode="&#x79d2;" d="M163 210 l14 0 l0 -152 l-14 0 l0 152 ZM126 168 l14 -5 q-13 -38 -28 -70 q-2 1 -13 6 q15 32 27 69 ZM212 171 q16 -29 30 -56 l-13 -7 q-14 30 -30 57 l13 6 ZM223 96 l13 -7 q-38 -73 -149 -113 q-3 7 -8 14 q112 38 144 106 ZM18 137 l83 0 l0 -11 l-83 0 l0 11 ZM56 188 l14 0 l0 -212 l-14 0 l0 212 ZM58 137 l9 -2 q-15 -63 -47 -104 q-6 4 -11 8 q34 42 49 98 ZM78 106 q13 -14 24 -27 l-11 -7 q-11 13 -24 27 l11 7 ZM97 199 l3 -11 q-40 -6 -77 -9 q-1 5 -3 12 q40 3 77 8 Z" /><glyph glyph-name="" unicode="&#x7b49;" d="M27 132 l201 0 l0 -12 l-201 0 l0 12 ZM12 92 l233 0 l0 -12 l-233 0 l0 12 ZM19 52 l218 0 l0 -12 l-218 0 l0 12 ZM119 152 l14 0 l0 -68 l-14 0 l0 68 ZM171 82 l14 0 l0 -73 q0 -31 -27 -31 q-14 0 -31 0 q-1 7 -3 16 q19 -2 32 -2 q15 0 15 17 l0 73 ZM72 34 q18 -14 35 -29 l-10 -11 q-18 17 -34 31 l9 9 ZM49 189 l78 0 l0 -13 l-78 0 l0 13 ZM154 189 l89 0 l0 -13 l-89 0 l0 13 ZM58 210 l15 0 q-18 -43 -56 -70 q-4 6 -9 13 q35 22 50 57 ZM71 174 q12 -10 21 -22 l-9 -8 q-10 12 -21 23 l9 7 ZM160 210 l15 0 q-15 -36 -44 -65 q-5 6 -11 10 q28 25 40 55 ZM188 174 q12 -11 22 -22 l-10 -9 q-9 12 -21 24 l9 7 Z" /><glyph glyph-name="" unicode="&#x7f6e;" d="M29 200 l13 0 l0 -46 l-13 0 l0 46 ZM35 200 l183 0 l0 -9 l-183 0 l0 9 ZM213 200 l12 0 l0 -46 l-12 0 l0 46 ZM37 164 l183 0 l0 -9 l-183 0 l0 9 ZM91 194 l12 0 l0 -34 l-12 0 l0 34 ZM151 195 l13 0 l0 -35 l-13 0 l0 35 ZM46 105 l13 0 l0 -118 l-13 0 l0 118 ZM49 105 l158 0 l0 -10 l-158 0 l0 10 ZM200 105 l13 0 l0 -118 l-13 0 l0 118 ZM10 -6 l236 0 l0 -11 l-236 0 l0 11 ZM50 77 l156 0 l0 -9 l-156 0 l0 9 ZM50 50 l158 0 l0 -10 l-158 0 l0 10 ZM49 22 l158 0 l0 -10 l-158 0 l0 10 ZM16 135 l225 0 l0 -11 l-225 0 l0 11 ZM120 147 l12 0 l0 -46 l-12 0 l0 46 Z" /><glyph glyph-name="" unicode="&#x8096;" d="M45 93 l165 0 l0 -13 l-165 0 l0 13 ZM46 45 l165 0 l0 -12 l-165 0 l0 12 ZM38 141 l14 0 l0 -163 l-14 0 l0 163 ZM45 141 l173 0 l0 -13 l-173 0 l0 13 ZM203 137 l15 0 l0 -132 q0 -25 -28 -25 q-14 -1 -35 0 q-1 7 -3 14 q12 -1 33 -1 q18 0 18 15 l0 129 ZM118 210 l14 0 l0 -76 l-14 0 l0 76 ZM44 198 q14 -14 35 -34 l-12 -9 q-20 20 -34 35 l11 8 ZM212 198 l9 -10 q-23 -17 -44 -33 l-10 11 q23 16 45 32 Z" /><glyph glyph-name="" unicode="&#x827a;" d="M221 17 q3 17 4 36 q9 -3 16 -5 q-3 -25 -6 -38 q-5 -25 -54 -25 q-57 0 -109 0 q-38 0 -38 25 q0 14 18 27 q49 35 120 69 l-135 0 l0 14 l164 0 l0 -15 q-85 -41 -137 -77 q-15 -10 -15 -18 q0 -11 26 -11 q50 -1 101 0 q41 0 45 18 ZM12 180 l233 0 l0 -15 l-233 0 l0 15 ZM77 210 l14 0 l0 -73 l-14 0 l0 73 ZM165 210 l15 0 l0 -70 l-15 0 l0 70 Z" /><glyph glyph-name="" unicode="&#x884c;" d="M112 192 l121 0 l0 -13 l-121 0 l0 13 ZM98 118 l149 0 l0 -13 l-149 0 l0 13 ZM184 113 l15 0 l0 -105 q0 -27 -26 -27 q-14 0 -31 0 q-1 8 -4 16 q18 -1 32 -1 q14 0 14 14 l0 103 ZM48 91 l15 0 l0 -114 l-15 0 l0 114 ZM10 66 q38 32 67 83 l13 -7 q-32 -54 -73 -91 q-2 7 -7 15 ZM12 143 q34 27 60 66 l13 -7 q-27 -40 -66 -73 q-3 6 -7 14 Z" /><glyph glyph-name="" unicode="&#x8bb0;" d="M28 204 q19 -18 35 -35 l-12 -12 q-15 18 -34 38 l11 9 ZM84 32 q1 -8 3 -15 q-20 -12 -35 -25 q-6 -5 -12 -10 l-9 11 q6 6 6 17 l0 102 l-28 0 l0 13 l43 0 l0 -116 q13 10 32 23 ZM95 196 l128 0 l0 -13 l-128 0 l0 13 ZM213 196 l16 0 l0 -94 l-16 0 l0 94 ZM108 115 l116 0 l0 -13 l-116 0 l0 13 ZM101 115 l18 0 l0 -101 q0 -17 21 -17 l58 0 q28 0 31 13 q2 9 4 20 q8 -2 16 -3 q-3 -17 -5 -25 q-6 -18 -46 -18 l-60 0 q-37 0 -37 30 l0 101 Z" /><glyph glyph-name="" unicode="&#x8bbe;" d="M46 202 q19 -18 35 -35 l-13 -12 q-14 18 -33 38 l11 9 ZM100 48 q1 -8 3 -15 q-23 -15 -44 -32 q-6 -5 -11 -11 l-10 12 q6 6 6 16 l0 94 l-35 0 l0 14 l50 0 l0 -108 q20 15 41 30 ZM123 198 l72 0 l0 -13 l-72 0 l0 13 ZM112 198 l14 0 l0 -32 q0 -39 -35 -59 q-4 5 -10 11 q31 16 31 49 l0 31 ZM193 198 l14 0 l0 -52 q0 -12 12 -12 l27 0 q-2 -7 -4 -14 l-25 0 q-24 0 -24 24 l0 54 ZM93 97 l118 0 l0 -13 l-118 0 l0 13 ZM205 97 l15 0 l0 -11 q-32 -79 -141 -112 q-4 6 -10 12 q108 31 136 104 l0 7 ZM119 91 q24 -77 125 -101 q-8 -9 -13 -14 q-105 31 -126 112 l14 3 Z" /><glyph glyph-name="" unicode="&#x8bf7;" d="M81 31 q0 -10 1 -15 q-31 -20 -42 -29 l-9 12 q8 7 8 19 l0 95 l-29 0 l0 13 l43 0 l0 -114 q15 10 28 19 ZM36 201 q18 -18 31 -33 l-13 -11 q-11 16 -29 36 l11 8 ZM81 190 l160 0 l0 -12 l-160 0 l0 12 ZM88 158 l146 0 l0 -12 l-146 0 l0 12 ZM75 126 l172 0 l0 -12 l-172 0 l0 12 ZM99 63 l121 0 l0 -11 l-121 0 l0 11 ZM100 31 l120 0 l0 -12 l-120 0 l0 12 ZM153 210 l15 0 l0 -90 l-15 0 l0 90 ZM92 96 l15 0 l0 -118 l-15 0 l0 118 ZM99 96 l129 0 l0 -12 l-129 0 l0 12 ZM212 87 l16 0 l0 -83 q0 -26 -31 -26 q-11 0 -33 1 q-1 6 -4 14 q21 -1 36 -1 q16 0 16 15 l0 80 Z" /><glyph glyph-name="" unicode="&#x8f66;" d="M19 173 l215 0 l0 -15 l-215 0 l0 15 ZM13 37 l229 0 l0 -15 l-229 0 l0 15 ZM129 141 l15 0 l0 -166 l-15 0 l0 166 ZM95 210 l16 -4 q-28 -61 -55 -112 l0 -12 l-15 0 l0 15 q28 52 54 113 ZM52 98 l170 0 l0 -16 l-170 0 l0 16 Z" /><glyph glyph-name="" unicode="&#x8fdb;" d="M86 166 l148 0 l0 -13 l-148 0 l0 13 ZM74 97 l169 0 l0 -13 l-169 0 l0 13 ZM184 208 l14 0 l0 -198 l-14 0 l0 198 ZM116 208 l14 0 l0 -73 q0 -55 -8 -78 q-8 -24 -33 -48 q-5 7 -11 13 q23 18 31 42 q7 21 7 69 l0 75 ZM11 123 l38 0 l0 -13 l-38 0 l0 13 ZM41 123 l14 0 l0 -107 l-14 0 l0 107 ZM42 25 l9 0 q17 -25 54 -29 q33 -2 141 1 q-4 -7 -6 -15 q-103 -1 -139 1 q-36 3 -55 28 q-15 -14 -28 -29 l-9 13 q16 15 33 30 ZM36 202 q14 -19 28 -39 l-13 -9 q-13 22 -27 39 l12 9 Z" /><glyph glyph-name="" unicode="&#x9177;" d="M18 150 l13 0 l0 -173 l-13 0 l0 173 ZM24 150 l92 0 l0 -12 l-92 0 l0 12 ZM109 150 l12 0 l0 -172 l-12 0 l0 172 ZM23 5 l92 0 l0 -12 l-92 0 l0 12 ZM23 49 l93 0 l0 -12 l-93 0 l0 12 ZM14 195 l110 0 l0 -11 l-110 0 l0 11 ZM80 186 l12 0 l0 -95 q0 -9 10 -8 l8 0 l0 -11 l-15 0 q-15 0 -15 14 l0 100 ZM48 186 l12 0 l0 -41 q0 -56 -22 -82 q-4 6 -8 10 q18 23 18 72 l0 41 ZM142 69 l11 0 l0 -91 l-11 0 l0 91 ZM147 69 l80 0 l0 -12 l-80 0 l0 12 ZM224 69 l11 0 l0 -91 l-11 0 l0 91 ZM150 5 l80 0 l0 -12 l-80 0 l0 12 ZM144 168 l95 0 l0 -12 l-95 0 l0 12 ZM127 110 l120 0 l0 -13 l-120 0 l0 13 ZM184 208 l11 0 l0 -105 l-11 0 l0 105 ZM148 196 l10 -5 q-10 -37 -21 -68 q-2 1 -10 6 q12 31 21 67 Z" /><glyph glyph-name="" unicode="&#x9879;" d="M12 186 l78 0 l0 -13 l-78 0 l0 13 ZM44 180 l14 0 l0 -148 l-14 0 l0 148 ZM93 51 q0 -6 0 -13 q-42 -12 -82 -24 l-2 15 q42 10 84 22 ZM103 148 l14 0 l0 -121 l-14 0 l0 121 ZM110 148 l115 0 l0 -12 l-115 0 l0 12 ZM218 148 l14 0 l0 -121 l-14 0 l0 121 ZM98 196 l142 0 l0 -13 l-142 0 l0 13 ZM160 186 l14 0 l-7 -42 l-13 0 l6 42 ZM160 115 l14 0 l0 -38 q0 -49 -27 -74 q-17 -15 -52 -30 q-4 7 -9 12 q31 12 50 27 q24 22 24 63 l0 40 ZM168 39 q45 -28 76 -49 l-10 -12 q-33 24 -75 51 l9 10 Z" /><glyph glyph-name="" unicode="&#xff01;" d="M68 29 l-13 0 l-6 170 l25 0 l-6 -170 ZM72 3 l0 -23 l-20 0 l0 23 l20 0 Z" /><glyph glyph-name="" unicode="&#xff0c;" d="M49 -34 l-6 6 q17 12 18 42 l-17 0 l0 28 l28 0 q0 -6 0 -27 q0 -34 -23 -49 Z" /><glyph glyph-name="" unicode="&#xff1a;" d="M76 75 l0 -30 l-29 0 l0 30 l29 0 ZM76 1 l0 -28 l-29 0 l0 28 l29 0 Z" /></font>
</defs>
</svg>
