<?xml version="1.0" standalone="no"?><!DOCTYPE svg PUBLIC "-//W3C//DTD SVG 1.1//EN" "http://www.w3.org/Graphics/SVG/1.1/DTD/svg11.dtd" ><svg xmlns="http://www.w3.org/2000/svg"><metadata></metadata><defs><font id="Founder:FZLanTingHeiS-B-GB	Regular" horiz-adv-x="256"><font-face font-family="FZLanTingHeiS-B-GB" font-weight="400" font-stretch="normal" units-per-em="256" panose-1="2 0 0 0 0 0 0 0 0 0" ascent="229" descent="-64" x-height="0" bbox="4 -27 249 208" underline-thickness="12" underline-position="-52" unicode-range="U+0030-ff01" /><missing-glyph horiz-adv-x="256" d="M25 195 l39 0 l-6 -153 l-28 0 l-5 153 ZM26 24 l36 0 l0 -37 l-36 0 l0 37 Z" /><glyph glyph-name="" unicode="0" d="M47 90 q-1 -82 38 -79 q38 -2 37 79 q1 82 -38 79 q-36 -2 -37 -79 ZM12 90 q2 106 72 108 q73 0 73 -108 q-1 -104 -72 -106 q-73 0 -73 106 Z" /><glyph glyph-name="" unicode="1" d="M80 198 l25 0 l0 -211 l-33 0 q0 60 0 152 q-19 -14 -53 -28 l0 32 q50 21 61 55 Z" /><glyph glyph-name="" unicode="2" d="M150 16 l0 -28 l-141 0 l0 20 q23 42 67 74 q44 31 42 55 q0 30 -36 30 q-28 -1 -37 -34 l-32 14 q19 51 73 51 q62 -3 66 -59 q5 -40 -51 -76 q-35 -26 -50 -47 q62 0 99 0 Z" /><glyph glyph-name="" unicode="3" d="M10 40 l34 8 q4 -35 37 -36 q41 -1 40 37 q-3 30 -40 31 l-25 0 l0 29 l17 0 q38 0 40 32 q-1 26 -30 27 q-29 -2 -35 -33 l-34 8 q14 54 68 55 q64 -1 66 -58 q0 -30 -33 -43 q40 -16 41 -50 q-4 -60 -73 -63 q-62 1 -73 56 Z" /><glyph glyph-name="" unicode="4" d="M97 65 l0 77 l-54 -77 l54 0 ZM157 65 l0 -30 q-9 0 -28 0 q0 -31 0 -48 l-32 0 q0 17 0 48 q-54 0 -93 0 l0 23 l100 140 l25 0 q0 -59 0 -133 q19 0 28 0 Z" /><glyph glyph-name="" unicode="5" d="M32 193 l115 0 l0 -30 l-87 0 l-5 -46 q12 10 34 11 q65 -4 69 -70 q-2 -72 -72 -74 q-62 0 -74 57 l33 7 q6 -36 39 -36 q39 1 40 44 q-1 40 -39 41 q-32 0 -41 -22 l-25 5 l13 113 Z" /><glyph glyph-name="" unicode="6" d="M87 11 q34 1 35 44 q-1 41 -35 42 q-42 -1 -43 -38 q1 -47 43 -48 ZM153 149 l-32 -9 q-8 29 -33 28 q-45 1 -44 -64 q16 22 46 22 q63 -3 66 -70 q-4 -68 -69 -72 q-78 -2 -77 101 q0 113 79 113 q49 -2 64 -49 Z" /><glyph glyph-name="" unicode="7" d="M12 193 l144 0 l0 -24 q-60 -67 -80 -182 l-36 0 q17 97 73 176 q-62 0 -101 0 l0 30 Z" /><glyph glyph-name="" unicode="8" d="M86 10 q36 2 39 32 q-1 38 -40 39 q-37 -3 -39 -37 q3 -31 40 -34 ZM85 169 q-28 -3 -30 -28 q1 -32 31 -33 q29 1 30 31 q-2 27 -31 30 ZM123 95 q35 -13 37 -53 q-3 -55 -74 -58 q-72 2 -75 60 q1 37 37 51 q-26 15 -28 44 q5 56 65 59 q60 -4 66 -60 q-2 -28 -28 -43 Z" /><glyph glyph-name="" unicode="9" d="M81 168 q-34 -1 -35 -43 q0 -42 35 -43 q42 1 43 40 q1 47 -43 46 ZM16 30 l31 10 q8 -30 33 -29 q43 1 44 65 q-15 -23 -46 -23 q-62 3 -66 71 q5 69 69 74 q79 3 77 -103 q1 -112 -79 -111 q-49 2 -63 46 Z" /><glyph glyph-name="" unicode="&#x4e2a;" d="M113 204 l38 0 l-5 -7 q34 -54 101 -91 q-9 -11 -21 -29 q-1 -2 -2 -3 q-66 38 -96 92 q-30 -51 -96 -95 q-7 12 -22 32 q68 41 103 101 ZM110 -26 l0 143 l36 0 l0 -143 l-36 0 Z" /><glyph glyph-name="" unicode="&#x559c;" d="M104 63 l46 0 q6 10 11 17 l-67 0 q2 -3 5 -8 q4 -6 5 -9 ZM69 111 l0 -11 l118 0 l0 11 l-118 0 ZM190 0 l0 11 l-124 0 l0 -11 l124 0 ZM16 173 l0 22 l95 0 l0 12 l34 0 l0 -12 l95 0 l0 -22 l-95 0 l0 -11 l82 0 l0 -20 l-198 0 l0 20 l82 0 l0 11 l-95 0 ZM222 -27 l-32 0 l0 8 l-124 0 l0 -8 l-32 0 l0 58 l188 0 l0 -58 ZM246 63 l0 -22 l-235 0 l0 22 l54 0 q-1 3 -3 7 q-3 5 -4 7 l16 3 l-37 0 l0 51 l182 0 l0 -51 l-36 0 l16 -3 q-2 -2 -6 -7 q-4 -4 -6 -7 l59 0 Z" /><glyph glyph-name="" unicode="&#x606d;" d="M99 151 l0 -26 l57 0 l0 26 l-57 0 ZM136 49 l26 11 q7 -13 18 -39 q7 -16 11 -23 l-29 -12 q-9 25 -26 61 l0 -44 q-1 -24 -28 -26 q-7 0 -19 -1 q-11 0 -17 0 q-1 15 -6 30 q11 0 27 -1 q11 2 11 12 l0 65 l32 0 l0 -33 ZM13 97 l0 28 l55 0 l0 26 l-45 0 l0 28 l45 0 l0 27 l31 0 l0 -27 l57 0 l0 27 l31 0 l0 -27 l46 0 l0 -28 l-46 0 l0 -26 l55 0 l0 -28 l-61 0 q27 -19 68 -25 q-2 -5 -7 -15 q-6 -12 -9 -18 q-3 1 -10 4 q-6 2 -10 3 q9 -12 25 -36 q5 -7 7 -10 l-28 -14 q-5 8 -14 24 q-15 25 -24 39 l16 6 q-30 17 -50 42 l-34 0 q-14 -18 -44 -38 l23 -12 q-25 -39 -49 -63 l-25 18 q21 21 47 55 q-19 -11 -40 -20 q-6 14 -16 31 q36 9 64 29 l-58 0 Z" /><glyph glyph-name="" unicode="&#x60a8;" d="M184 115 l22 17 q12 -12 37 -41 q-18 21 3 -3 l-24 -19 q-20 27 -38 46 ZM109 136 l25 -17 q-21 -30 -40 -49 q-6 6 -19 18 q9 -8 -3 2 q19 21 37 46 ZM186 49 l26 18 q5 -7 17 -24 q12 -16 18 -24 l-26 -19 q-10 15 -30 42 q-3 5 -5 7 ZM31 59 l30 -10 q-12 -36 -22 -57 l-30 9 q13 27 22 58 ZM146 98 l0 50 l32 0 l0 -57 q0 -25 -23 -27 q-5 -1 -17 -1 q15 -13 27 -27 l-24 -21 q-1 1 -3 4 q-15 18 -30 33 l16 14 q-1 5 -5 18 q-1 3 -2 5 q12 -1 20 -1 q9 1 9 10 ZM54 208 l30 -9 q-7 -17 -18 -34 l0 -100 l-30 0 l0 58 q-2 -2 -7 -8 q-5 -6 -8 -9 q-4 14 -12 32 q29 33 45 70 ZM173 37 q8 -5 25 -12 q5 -2 7 -3 q-4 -18 -9 -24 q-10 -21 -33 -21 l-61 0 q-36 0 -36 32 l0 47 l32 0 l0 -38 q0 -14 14 -14 l37 0 q16 0 19 12 q1 4 3 12 q1 6 2 9 ZM136 186 l103 0 l0 -25 l-19 -30 l-28 8 l10 20 l-83 0 q-12 -16 -24 -29 q0 0 -1 1 q-9 9 -23 18 q28 31 41 58 l35 0 q-2 -3 -5 -10 q-4 -7 -6 -11 Z" /><glyph glyph-name="" unicode="&#x6293;" d="M12 132 l0 30 l24 0 l0 44 l29 0 l0 -44 l20 0 l0 -30 l-20 0 l0 -31 q9 3 19 6 q-1 -19 -1 -33 q-9 -2 -18 -5 l0 -69 q0 -22 -21 -24 q-4 0 -13 -1 q-8 0 -13 0 q-3 15 -7 30 q6 -1 17 -1 q8 0 8 11 l0 44 q-12 -3 -25 -8 l-2 34 q4 1 12 3 q10 3 15 4 l0 40 l-24 0 ZM226 203 l10 -30 q-12 -1 -22 -3 q-1 -63 6 -100 q7 -40 26 -69 q-1 -1 -4 -2 q-14 -12 -27 -24 q-17 29 -23 73 q-6 39 -6 120 q-3 0 -8 -1 q-5 0 -8 -1 l0 -187 l-29 0 l0 185 q-3 0 -9 0 q-6 -1 -9 -1 l0 -81 q-2 -71 -29 -109 q-12 13 -24 27 q21 29 23 91 l0 100 q58 2 133 12 Z" /><glyph glyph-name="" unicode="&#x6355;" d="M119 66 l0 -20 l28 0 l0 20 l-28 0 ZM119 108 l0 -19 l28 0 l0 19 l-28 0 ZM179 66 l0 -20 l29 0 l0 20 l-29 0 ZM208 89 l0 19 l-29 0 l0 -19 l29 0 ZM10 133 l0 29 l25 0 l0 44 l30 0 l0 -44 l18 0 l0 -29 l-18 0 l0 -34 q4 1 11 2 q5 2 7 2 q0 -18 0 -31 q-9 -3 -18 -6 l0 -62 q0 -27 -21 -27 q-13 -2 -28 -2 q-3 15 -6 29 l18 0 q7 0 7 10 l0 43 q-12 -3 -23 -6 l-3 35 q14 3 26 6 l0 41 l-25 0 ZM87 148 l0 28 l60 0 l0 30 l32 0 l0 -30 l25 0 q-5 8 -14 18 l25 14 q2 -2 5 -6 q3 -3 15 -18 l-13 -8 l23 0 l0 -28 l-66 0 l0 -14 l59 0 l0 -131 q0 -27 -26 -27 q-3 0 -9 0 q-10 -1 -16 -1 q0 3 -1 9 q-3 16 -5 20 q5 0 18 0 q9 0 9 10 l0 9 l-29 0 l0 -46 l-32 0 l0 46 l-28 0 l0 -49 l-30 0 l0 160 l58 0 l0 14 l-60 0 Z" /><glyph glyph-name="" unicode="&#x6570;" d="M56 39 q12 -4 24 -9 q9 6 18 22 l-36 0 q-3 -6 -6 -13 ZM174 133 q4 -39 16 -66 q14 31 17 73 l-31 0 q-2 -3 -2 -7 ZM94 106 l0 -18 l-12 0 q-3 -6 -6 -12 l55 0 l0 -22 q-9 -20 -23 -35 q11 -4 24 -9 l-5 -7 q26 14 45 35 q-12 24 -18 53 q-4 -6 -9 -14 q-2 3 -7 11 q-3 6 -5 9 l-8 -11 q-15 11 -31 20 ZM15 135 l0 24 l19 0 q-7 13 -17 28 l21 13 q8 -9 20 -27 l-21 -14 l26 0 l0 47 l31 0 l0 -47 l25 0 l-20 14 q6 7 16 23 q3 3 4 5 l22 -14 q-4 -7 -13 -20 q-4 -5 -6 -8 l13 0 l0 -24 l-41 0 l0 -16 l8 11 q15 -9 28 -16 q19 36 34 93 l32 -3 q-4 -18 -10 -35 l60 0 l0 -29 l-10 0 q-4 -63 -27 -104 q17 -19 38 -30 q-9 -8 -21 -30 q-21 15 -36 32 q-22 -23 -46 -35 q-9 13 -21 25 l-8 -14 q-14 8 -32 16 q-26 -17 -62 -24 q-4 14 -12 27 q24 4 43 10 q-16 8 -34 15 q8 12 14 24 l-19 0 l0 24 l31 0 q1 3 4 10 q2 6 3 9 l12 -1 l0 22 q-17 -18 -44 -34 q-5 16 -11 29 q24 9 43 24 l-36 0 Z" /><glyph glyph-name="" unicode="&#x751f;" d="M19 -16 l0 31 l101 0 l0 40 l-71 0 l0 32 l71 0 l0 40 l-58 0 q-15 -31 -35 -57 q-1 4 -4 11 q-3 9 -12 30 q24 33 41 86 l36 -8 q-1 -4 -4 -10 q-1 -6 -7 -20 l43 0 l0 47 l35 0 l0 -47 l79 0 l0 -32 l-79 0 l0 -40 l70 0 l0 -32 l-70 0 l0 -40 l88 0 l0 -31 l-224 0 Z" /><glyph glyph-name="" unicode="&#x8096;" d="M30 186 l23 20 q6 -6 18 -19 q13 -13 20 -20 l-24 -22 q-1 1 -3 3 q-16 20 -34 38 ZM201 204 l26 -20 q-10 -11 -29 -29 q-8 -8 -11 -11 l-23 22 q15 12 37 38 ZM70 68 l0 -20 l117 0 l0 20 l-117 0 ZM187 94 l0 19 l-117 0 l0 -19 l117 0 ZM70 22 l0 -48 l-34 0 l0 168 l74 0 l0 66 l35 0 l0 -66 l77 0 l0 -134 q0 -30 -33 -33 q-11 0 -44 -1 q0 2 -1 5 q-4 18 -8 27 q18 -1 35 -1 q16 0 16 13 l0 4 l-117 0 Z" /><glyph glyph-name="" unicode="&#x91cf;" d="M64 58 l0 -10 l48 0 l0 10 l-48 0 ZM64 84 l0 -11 l48 0 l0 11 l-48 0 ZM192 73 l0 11 l-49 0 l0 -11 l49 0 ZM143 48 l49 0 l0 10 l-49 0 l0 -10 ZM66 151 l124 0 l0 8 l-124 0 l0 -8 ZM190 173 l0 9 l-124 0 l0 -9 l124 0 ZM11 108 l0 18 l235 0 l0 -18 l-235 0 ZM34 134 l0 64 l188 0 l0 -64 l-188 0 ZM10 -19 l0 18 l102 0 l0 7 l-87 0 l0 17 l87 0 l0 8 l-79 0 l0 69 l189 0 l0 -69 l-79 0 l0 -8 l89 0 l0 -17 l-89 0 l0 -7 l103 0 l0 -18 l-236 0 Z" /><glyph glyph-name="" unicode="&#xff01;" d="M45 189 l39 0 l-6 -152 l-28 0 l-5 152 ZM47 18 l35 0 l0 -36 l-35 0 l0 36 Z" /></font>
</defs>
</svg>
